<?xml version="1.0" encoding="utf-8"?>
<!DOCTYPE svg PUBLIC "-//W3C//DTD SVG 1.1//EN" "http://www.w3.org/Graphics/SVG/1.1/DTD/svg11.dtd">
<svg version="1.1" id="Layer_1" xmlns="http://www.w3.org/2000/svg" xmlns:xlink="http://www.w3.org/1999/xlink" x="0px" y="0px"
width="231px" height="231px" viewBox="0 0 231 231" enable-background="new 0 0 231 231" xml:space="preserve">
<rect x="0" y="0" width="231" height="231" fill="rgb(255,255,255)" /><g transform="translate(14,14)"><g transform="translate(63,0) scale(0.07,0.07)"><g transform="" style="fill: rgb(0, 0, 0);">
<polygon points="0,50 50,100 100,50 50,0"/>
</g></g><g transform="translate(70,0) scale(0.07,0.07)"><g transform="" style="fill: rgb(0, 0, 0);">
<polygon points="0,50 50,100 100,50 50,0"/>
</g></g><g transform="translate(77,0) scale(0.07,0.07)"><g transform="" style="fill: rgb(0, 0, 0);">
<polygon points="0,50 50,100 100,50 50,0"/>
</g></g><g transform="translate(84,0) scale(0.07,0.07)"><g transform="" style="fill: rgb(0, 0, 0);">
<polygon points="0,50 50,100 100,50 50,0"/>
</g></g><g transform="translate(105,0) scale(0.07,0.07)"><g transform="" style="fill: rgb(0, 0, 0);">
<polygon points="0,50 50,100 100,50 50,0"/>
</g></g><g transform="translate(126,0) scale(0.07,0.07)"><g transform="" style="fill: rgb(0, 0, 0);">
<polygon points="0,50 50,100 100,50 50,0"/>
</g></g><g transform="translate(133,0) scale(0.07,0.07)"><g transform="" style="fill: rgb(0, 0, 0);">
<polygon points="0,50 50,100 100,50 50,0"/>
</g></g><g transform="translate(77,7) scale(0.07,0.07)"><g transform="" style="fill: rgb(0, 0, 0);">
<polygon points="0,50 50,100 100,50 50,0"/>
</g></g><g transform="translate(84,7) scale(0.07,0.07)"><g transform="" style="fill: rgb(0, 0, 0);">
<polygon points="0,50 50,100 100,50 50,0"/>
</g></g><g transform="translate(91,7) scale(0.07,0.07)"><g transform="" style="fill: rgb(0, 0, 0);">
<polygon points="0,50 50,100 100,50 50,0"/>
</g></g><g transform="translate(105,7) scale(0.07,0.07)"><g transform="" style="fill: rgb(0, 0, 0);">
<polygon points="0,50 50,100 100,50 50,0"/>
</g></g><g transform="translate(112,7) scale(0.07,0.07)"><g transform="" style="fill: rgb(0, 0, 0);">
<polygon points="0,50 50,100 100,50 50,0"/>
</g></g><g transform="translate(63,14) scale(0.07,0.07)"><g transform="" style="fill: rgb(0, 0, 0);">
<polygon points="0,50 50,100 100,50 50,0"/>
</g></g><g transform="translate(77,14) scale(0.07,0.07)"><g transform="" style="fill: rgb(0, 0, 0);">
<polygon points="0,50 50,100 100,50 50,0"/>
</g></g><g transform="translate(105,14) scale(0.07,0.07)"><g transform="" style="fill: rgb(0, 0, 0);">
<polygon points="0,50 50,100 100,50 50,0"/>
</g></g><g transform="translate(112,14) scale(0.07,0.07)"><g transform="" style="fill: rgb(0, 0, 0);">
<polygon points="0,50 50,100 100,50 50,0"/>
</g></g><g transform="translate(119,14) scale(0.07,0.07)"><g transform="" style="fill: rgb(0, 0, 0);">
<polygon points="0,50 50,100 100,50 50,0"/>
</g></g><g transform="translate(133,14) scale(0.07,0.07)"><g transform="" style="fill: rgb(0, 0, 0);">
<polygon points="0,50 50,100 100,50 50,0"/>
</g></g><g transform="translate(140,14) scale(0.07,0.07)"><g transform="" style="fill: rgb(0, 0, 0);">
<polygon points="0,50 50,100 100,50 50,0"/>
</g></g><g transform="translate(70,21) scale(0.07,0.07)"><g transform="" style="fill: rgb(0, 0, 0);">
<polygon points="0,50 50,100 100,50 50,0"/>
</g></g><g transform="translate(98,21) scale(0.07,0.07)"><g transform="" style="fill: rgb(0, 0, 0);">
<polygon points="0,50 50,100 100,50 50,0"/>
</g></g><g transform="translate(105,21) scale(0.07,0.07)"><g transform="" style="fill: rgb(0, 0, 0);">
<polygon points="0,50 50,100 100,50 50,0"/>
</g></g><g transform="translate(126,21) scale(0.07,0.07)"><g transform="" style="fill: rgb(0, 0, 0);">
<polygon points="0,50 50,100 100,50 50,0"/>
</g></g><g transform="translate(77,28) scale(0.07,0.07)"><g transform="" style="fill: rgb(0, 0, 0);">
<polygon points="0,50 50,100 100,50 50,0"/>
</g></g><g transform="translate(91,28) scale(0.07,0.07)"><g transform="" style="fill: rgb(0, 0, 0);">
<polygon points="0,50 50,100 100,50 50,0"/>
</g></g><g transform="translate(98,28) scale(0.07,0.07)"><g transform="" style="fill: rgb(0, 0, 0);">
<polygon points="0,50 50,100 100,50 50,0"/>
</g></g><g transform="translate(105,28) scale(0.07,0.07)"><g transform="" style="fill: rgb(0, 0, 0);">
<polygon points="0,50 50,100 100,50 50,0"/>
</g></g><g transform="translate(112,28) scale(0.07,0.07)"><g transform="" style="fill: rgb(0, 0, 0);">
<polygon points="0,50 50,100 100,50 50,0"/>
</g></g><g transform="translate(119,28) scale(0.07,0.07)"><g transform="" style="fill: rgb(0, 0, 0);">
<polygon points="0,50 50,100 100,50 50,0"/>
</g></g><g transform="translate(126,28) scale(0.07,0.07)"><g transform="" style="fill: rgb(0, 0, 0);">
<polygon points="0,50 50,100 100,50 50,0"/>
</g></g><g transform="translate(140,28) scale(0.07,0.07)"><g transform="" style="fill: rgb(0, 0, 0);">
<polygon points="0,50 50,100 100,50 50,0"/>
</g></g><g transform="translate(56,35) scale(0.07,0.07)"><g transform="" style="fill: rgb(0, 0, 0);">
<polygon points="0,50 50,100 100,50 50,0"/>
</g></g><g transform="translate(63,35) scale(0.07,0.07)"><g transform="" style="fill: rgb(0, 0, 0);">
<polygon points="0,50 50,100 100,50 50,0"/>
</g></g><g transform="translate(70,35) scale(0.07,0.07)"><g transform="" style="fill: rgb(0, 0, 0);">
<polygon points="0,50 50,100 100,50 50,0"/>
</g></g><g transform="translate(77,35) scale(0.07,0.07)"><g transform="" style="fill: rgb(0, 0, 0);">
<polygon points="0,50 50,100 100,50 50,0"/>
</g></g><g transform="translate(91,35) scale(0.07,0.07)"><g transform="" style="fill: rgb(0, 0, 0);">
<polygon points="0,50 50,100 100,50 50,0"/>
</g></g><g transform="translate(98,35) scale(0.07,0.07)"><g transform="" style="fill: rgb(0, 0, 0);">
<polygon points="0,50 50,100 100,50 50,0"/>
</g></g><g transform="translate(105,35) scale(0.07,0.07)"><g transform="" style="fill: rgb(0, 0, 0);">
<polygon points="0,50 50,100 100,50 50,0"/>
</g></g><g transform="translate(112,35) scale(0.07,0.07)"><g transform="" style="fill: rgb(0, 0, 0);">
<polygon points="0,50 50,100 100,50 50,0"/>
</g></g><g transform="translate(119,35) scale(0.07,0.07)"><g transform="" style="fill: rgb(0, 0, 0);">
<polygon points="0,50 50,100 100,50 50,0"/>
</g></g><g transform="translate(126,35) scale(0.07,0.07)"><g transform="" style="fill: rgb(0, 0, 0);">
<polygon points="0,50 50,100 100,50 50,0"/>
</g></g><g transform="translate(133,35) scale(0.07,0.07)"><g transform="" style="fill: rgb(0, 0, 0);">
<polygon points="0,50 50,100 100,50 50,0"/>
</g></g><g transform="translate(56,42) scale(0.07,0.07)"><g transform="" style="fill: rgb(0, 0, 0);">
<polygon points="0,50 50,100 100,50 50,0"/>
</g></g><g transform="translate(70,42) scale(0.07,0.07)"><g transform="" style="fill: rgb(0, 0, 0);">
<polygon points="0,50 50,100 100,50 50,0"/>
</g></g><g transform="translate(84,42) scale(0.07,0.07)"><g transform="" style="fill: rgb(0, 0, 0);">
<polygon points="0,50 50,100 100,50 50,0"/>
</g></g><g transform="translate(98,42) scale(0.07,0.07)"><g transform="" style="fill: rgb(0, 0, 0);">
<polygon points="0,50 50,100 100,50 50,0"/>
</g></g><g transform="translate(112,42) scale(0.07,0.07)"><g transform="" style="fill: rgb(0, 0, 0);">
<polygon points="0,50 50,100 100,50 50,0"/>
</g></g><g transform="translate(126,42) scale(0.07,0.07)"><g transform="" style="fill: rgb(0, 0, 0);">
<polygon points="0,50 50,100 100,50 50,0"/>
</g></g><g transform="translate(140,42) scale(0.07,0.07)"><g transform="" style="fill: rgb(0, 0, 0);">
<polygon points="0,50 50,100 100,50 50,0"/>
</g></g><g transform="translate(63,49) scale(0.07,0.07)"><g transform="" style="fill: rgb(0, 0, 0);">
<polygon points="0,50 50,100 100,50 50,0"/>
</g></g><g transform="translate(70,49) scale(0.07,0.07)"><g transform="" style="fill: rgb(0, 0, 0);">
<polygon points="0,50 50,100 100,50 50,0"/>
</g></g><g transform="translate(98,49) scale(0.07,0.07)"><g transform="" style="fill: rgb(0, 0, 0);">
<polygon points="0,50 50,100 100,50 50,0"/>
</g></g><g transform="translate(119,49) scale(0.07,0.07)"><g transform="" style="fill: rgb(0, 0, 0);">
<polygon points="0,50 50,100 100,50 50,0"/>
</g></g><g transform="translate(126,49) scale(0.07,0.07)"><g transform="" style="fill: rgb(0, 0, 0);">
<polygon points="0,50 50,100 100,50 50,0"/>
</g></g><g transform="translate(140,49) scale(0.07,0.07)"><g transform="" style="fill: rgb(0, 0, 0);">
<polygon points="0,50 50,100 100,50 50,0"/>
</g></g><g transform="translate(0,56) scale(0.07,0.07)"><g transform="" style="fill: rgb(0, 0, 0);">
<polygon points="0,50 50,100 100,50 50,0"/>
</g></g><g transform="translate(21,56) scale(0.07,0.07)"><g transform="" style="fill: rgb(0, 0, 0);">
<polygon points="0,50 50,100 100,50 50,0"/>
</g></g><g transform="translate(35,56) scale(0.07,0.07)"><g transform="" style="fill: rgb(0, 0, 0);">
<polygon points="0,50 50,100 100,50 50,0"/>
</g></g><g transform="translate(42,56) scale(0.07,0.07)"><g transform="" style="fill: rgb(0, 0, 0);">
<polygon points="0,50 50,100 100,50 50,0"/>
</g></g><g transform="translate(56,56) scale(0.07,0.07)"><g transform="" style="fill: rgb(0, 0, 0);">
<polygon points="0,50 50,100 100,50 50,0"/>
</g></g><g transform="translate(63,56) scale(0.07,0.07)"><g transform="" style="fill: rgb(0, 0, 0);">
<polygon points="0,50 50,100 100,50 50,0"/>
</g></g><g transform="translate(91,56) scale(0.07,0.07)"><g transform="" style="fill: rgb(0, 0, 0);">
<polygon points="0,50 50,100 100,50 50,0"/>
</g></g><g transform="translate(98,56) scale(0.07,0.07)"><g transform="" style="fill: rgb(0, 0, 0);">
<polygon points="0,50 50,100 100,50 50,0"/>
</g></g><g transform="translate(105,56) scale(0.07,0.07)"><g transform="" style="fill: rgb(0, 0, 0);">
<polygon points="0,50 50,100 100,50 50,0"/>
</g></g><g transform="translate(133,56) scale(0.07,0.07)"><g transform="" style="fill: rgb(0, 0, 0);">
<polygon points="0,50 50,100 100,50 50,0"/>
</g></g><g transform="translate(147,56) scale(0.07,0.07)"><g transform="" style="fill: rgb(0, 0, 0);">
<polygon points="0,50 50,100 100,50 50,0"/>
</g></g><g transform="translate(161,56) scale(0.07,0.07)"><g transform="" style="fill: rgb(0, 0, 0);">
<polygon points="0,50 50,100 100,50 50,0"/>
</g></g><g transform="translate(21,63) scale(0.07,0.07)"><g transform="" style="fill: rgb(0, 0, 0);">
<polygon points="0,50 50,100 100,50 50,0"/>
</g></g><g transform="translate(35,63) scale(0.07,0.07)"><g transform="" style="fill: rgb(0, 0, 0);">
<polygon points="0,50 50,100 100,50 50,0"/>
</g></g><g transform="translate(56,63) scale(0.07,0.07)"><g transform="" style="fill: rgb(0, 0, 0);">
<polygon points="0,50 50,100 100,50 50,0"/>
</g></g><g transform="translate(77,63) scale(0.07,0.07)"><g transform="" style="fill: rgb(0, 0, 0);">
<polygon points="0,50 50,100 100,50 50,0"/>
</g></g><g transform="translate(84,63) scale(0.07,0.07)"><g transform="" style="fill: rgb(0, 0, 0);">
<polygon points="0,50 50,100 100,50 50,0"/>
</g></g><g transform="translate(105,63) scale(0.07,0.07)"><g transform="" style="fill: rgb(0, 0, 0);">
<polygon points="0,50 50,100 100,50 50,0"/>
</g></g><g transform="translate(112,63) scale(0.07,0.07)"><g transform="" style="fill: rgb(0, 0, 0);">
<polygon points="0,50 50,100 100,50 50,0"/>
</g></g><g transform="translate(140,63) scale(0.07,0.07)"><g transform="" style="fill: rgb(0, 0, 0);">
<polygon points="0,50 50,100 100,50 50,0"/>
</g></g><g transform="translate(147,63) scale(0.07,0.07)"><g transform="" style="fill: rgb(0, 0, 0);">
<polygon points="0,50 50,100 100,50 50,0"/>
</g></g><g transform="translate(154,63) scale(0.07,0.07)"><g transform="" style="fill: rgb(0, 0, 0);">
<polygon points="0,50 50,100 100,50 50,0"/>
</g></g><g transform="translate(175,63) scale(0.07,0.07)"><g transform="" style="fill: rgb(0, 0, 0);">
<polygon points="0,50 50,100 100,50 50,0"/>
</g></g><g transform="translate(196,63) scale(0.07,0.07)"><g transform="" style="fill: rgb(0, 0, 0);">
<polygon points="0,50 50,100 100,50 50,0"/>
</g></g><g transform="translate(0,70) scale(0.07,0.07)"><g transform="" style="fill: rgb(0, 0, 0);">
<polygon points="0,50 50,100 100,50 50,0"/>
</g></g><g transform="translate(14,70) scale(0.07,0.07)"><g transform="" style="fill: rgb(0, 0, 0);">
<polygon points="0,50 50,100 100,50 50,0"/>
</g></g><g transform="translate(28,70) scale(0.07,0.07)"><g transform="" style="fill: rgb(0, 0, 0);">
<polygon points="0,50 50,100 100,50 50,0"/>
</g></g><g transform="translate(42,70) scale(0.07,0.07)"><g transform="" style="fill: rgb(0, 0, 0);">
<polygon points="0,50 50,100 100,50 50,0"/>
</g></g><g transform="translate(56,70) scale(0.07,0.07)"><g transform="" style="fill: rgb(0, 0, 0);">
<polygon points="0,50 50,100 100,50 50,0"/>
</g></g><g transform="translate(77,70) scale(0.07,0.07)"><g transform="" style="fill: rgb(0, 0, 0);">
<polygon points="0,50 50,100 100,50 50,0"/>
</g></g><g transform="translate(84,70) scale(0.07,0.07)"><g transform="" style="fill: rgb(0, 0, 0);">
<polygon points="0,50 50,100 100,50 50,0"/>
</g></g><g transform="translate(112,70) scale(0.07,0.07)"><g transform="" style="fill: rgb(0, 0, 0);">
<polygon points="0,50 50,100 100,50 50,0"/>
</g></g><g transform="translate(133,70) scale(0.07,0.07)"><g transform="" style="fill: rgb(0, 0, 0);">
<polygon points="0,50 50,100 100,50 50,0"/>
</g></g><g transform="translate(154,70) scale(0.07,0.07)"><g transform="" style="fill: rgb(0, 0, 0);">
<polygon points="0,50 50,100 100,50 50,0"/>
</g></g><g transform="translate(175,70) scale(0.07,0.07)"><g transform="" style="fill: rgb(0, 0, 0);">
<polygon points="0,50 50,100 100,50 50,0"/>
</g></g><g transform="translate(182,70) scale(0.07,0.07)"><g transform="" style="fill: rgb(0, 0, 0);">
<polygon points="0,50 50,100 100,50 50,0"/>
</g></g><g transform="translate(189,70) scale(0.07,0.07)"><g transform="" style="fill: rgb(0, 0, 0);">
<polygon points="0,50 50,100 100,50 50,0"/>
</g></g><g transform="translate(7,77) scale(0.07,0.07)"><g transform="" style="fill: rgb(0, 0, 0);">
<polygon points="0,50 50,100 100,50 50,0"/>
</g></g><g transform="translate(14,77) scale(0.07,0.07)"><g transform="" style="fill: rgb(0, 0, 0);">
<polygon points="0,50 50,100 100,50 50,0"/>
</g></g><g transform="translate(35,77) scale(0.07,0.07)"><g transform="" style="fill: rgb(0, 0, 0);">
<polygon points="0,50 50,100 100,50 50,0"/>
</g></g><g transform="translate(49,77) scale(0.07,0.07)"><g transform="" style="fill: rgb(0, 0, 0);">
<polygon points="0,50 50,100 100,50 50,0"/>
</g></g><g transform="translate(63,77) scale(0.07,0.07)"><g transform="" style="fill: rgb(0, 0, 0);">
<polygon points="0,50 50,100 100,50 50,0"/>
</g></g><g transform="translate(70,77) scale(0.07,0.07)"><g transform="" style="fill: rgb(0, 0, 0);">
<polygon points="0,50 50,100 100,50 50,0"/>
</g></g><g transform="translate(77,77) scale(0.07,0.07)"><g transform="" style="fill: rgb(0, 0, 0);">
<polygon points="0,50 50,100 100,50 50,0"/>
</g></g><g transform="translate(84,77) scale(0.07,0.07)"><g transform="" style="fill: rgb(0, 0, 0);">
<polygon points="0,50 50,100 100,50 50,0"/>
</g></g><g transform="translate(91,77) scale(0.07,0.07)"><g transform="" style="fill: rgb(0, 0, 0);">
<polygon points="0,50 50,100 100,50 50,0"/>
</g></g><g transform="translate(98,77) scale(0.07,0.07)"><g transform="" style="fill: rgb(0, 0, 0);">
<polygon points="0,50 50,100 100,50 50,0"/>
</g></g><g transform="translate(105,77) scale(0.07,0.07)"><g transform="" style="fill: rgb(0, 0, 0);">
<polygon points="0,50 50,100 100,50 50,0"/>
</g></g><g transform="translate(126,77) scale(0.07,0.07)"><g transform="" style="fill: rgb(0, 0, 0);">
<polygon points="0,50 50,100 100,50 50,0"/>
</g></g><g transform="translate(133,77) scale(0.07,0.07)"><g transform="" style="fill: rgb(0, 0, 0);">
<polygon points="0,50 50,100 100,50 50,0"/>
</g></g><g transform="translate(140,77) scale(0.07,0.07)"><g transform="" style="fill: rgb(0, 0, 0);">
<polygon points="0,50 50,100 100,50 50,0"/>
</g></g><g transform="translate(161,77) scale(0.07,0.07)"><g transform="" style="fill: rgb(0, 0, 0);">
<polygon points="0,50 50,100 100,50 50,0"/>
</g></g><g transform="translate(168,77) scale(0.07,0.07)"><g transform="" style="fill: rgb(0, 0, 0);">
<polygon points="0,50 50,100 100,50 50,0"/>
</g></g><g transform="translate(182,77) scale(0.07,0.07)"><g transform="" style="fill: rgb(0, 0, 0);">
<polygon points="0,50 50,100 100,50 50,0"/>
</g></g><g transform="translate(189,77) scale(0.07,0.07)"><g transform="" style="fill: rgb(0, 0, 0);">
<polygon points="0,50 50,100 100,50 50,0"/>
</g></g><g transform="translate(21,84) scale(0.07,0.07)"><g transform="" style="fill: rgb(0, 0, 0);">
<polygon points="0,50 50,100 100,50 50,0"/>
</g></g><g transform="translate(28,84) scale(0.07,0.07)"><g transform="" style="fill: rgb(0, 0, 0);">
<polygon points="0,50 50,100 100,50 50,0"/>
</g></g><g transform="translate(35,84) scale(0.07,0.07)"><g transform="" style="fill: rgb(0, 0, 0);">
<polygon points="0,50 50,100 100,50 50,0"/>
</g></g><g transform="translate(42,84) scale(0.07,0.07)"><g transform="" style="fill: rgb(0, 0, 0);">
<polygon points="0,50 50,100 100,50 50,0"/>
</g></g><g transform="translate(49,84) scale(0.07,0.07)"><g transform="" style="fill: rgb(0, 0, 0);">
<polygon points="0,50 50,100 100,50 50,0"/>
</g></g><g transform="translate(63,84) scale(0.07,0.07)"><g transform="" style="fill: rgb(0, 0, 0);">
<polygon points="0,50 50,100 100,50 50,0"/>
</g></g><g transform="translate(77,84) scale(0.07,0.07)"><g transform="" style="fill: rgb(0, 0, 0);">
<polygon points="0,50 50,100 100,50 50,0"/>
</g></g><g transform="translate(91,84) scale(0.07,0.07)"><g transform="" style="fill: rgb(0, 0, 0);">
<polygon points="0,50 50,100 100,50 50,0"/>
</g></g><g transform="translate(112,84) scale(0.07,0.07)"><g transform="" style="fill: rgb(0, 0, 0);">
<polygon points="0,50 50,100 100,50 50,0"/>
</g></g><g transform="translate(119,84) scale(0.07,0.07)"><g transform="" style="fill: rgb(0, 0, 0);">
<polygon points="0,50 50,100 100,50 50,0"/>
</g></g><g transform="translate(126,84) scale(0.07,0.07)"><g transform="" style="fill: rgb(0, 0, 0);">
<polygon points="0,50 50,100 100,50 50,0"/>
</g></g><g transform="translate(140,84) scale(0.07,0.07)"><g transform="" style="fill: rgb(0, 0, 0);">
<polygon points="0,50 50,100 100,50 50,0"/>
</g></g><g transform="translate(147,84) scale(0.07,0.07)"><g transform="" style="fill: rgb(0, 0, 0);">
<polygon points="0,50 50,100 100,50 50,0"/>
</g></g><g transform="translate(154,84) scale(0.07,0.07)"><g transform="" style="fill: rgb(0, 0, 0);">
<polygon points="0,50 50,100 100,50 50,0"/>
</g></g><g transform="translate(175,84) scale(0.07,0.07)"><g transform="" style="fill: rgb(0, 0, 0);">
<polygon points="0,50 50,100 100,50 50,0"/>
</g></g><g transform="translate(189,84) scale(0.07,0.07)"><g transform="" style="fill: rgb(0, 0, 0);">
<polygon points="0,50 50,100 100,50 50,0"/>
</g></g><g transform="translate(196,84) scale(0.07,0.07)"><g transform="" style="fill: rgb(0, 0, 0);">
<polygon points="0,50 50,100 100,50 50,0"/>
</g></g><g transform="translate(0,91) scale(0.07,0.07)"><g transform="" style="fill: rgb(0, 0, 0);">
<polygon points="0,50 50,100 100,50 50,0"/>
</g></g><g transform="translate(7,91) scale(0.07,0.07)"><g transform="" style="fill: rgb(0, 0, 0);">
<polygon points="0,50 50,100 100,50 50,0"/>
</g></g><g transform="translate(28,91) scale(0.07,0.07)"><g transform="" style="fill: rgb(0, 0, 0);">
<polygon points="0,50 50,100 100,50 50,0"/>
</g></g><g transform="translate(56,91) scale(0.07,0.07)"><g transform="" style="fill: rgb(0, 0, 0);">
<polygon points="0,50 50,100 100,50 50,0"/>
</g></g><g transform="translate(63,91) scale(0.07,0.07)"><g transform="" style="fill: rgb(0, 0, 0);">
<polygon points="0,50 50,100 100,50 50,0"/>
</g></g><g transform="translate(77,91) scale(0.07,0.07)"><g transform="" style="fill: rgb(0, 0, 0);">
<polygon points="0,50 50,100 100,50 50,0"/>
</g></g><g transform="translate(133,91) scale(0.07,0.07)"><g transform="" style="fill: rgb(0, 0, 0);">
<polygon points="0,50 50,100 100,50 50,0"/>
</g></g><g transform="translate(140,91) scale(0.07,0.07)"><g transform="" style="fill: rgb(0, 0, 0);">
<polygon points="0,50 50,100 100,50 50,0"/>
</g></g><g transform="translate(147,91) scale(0.07,0.07)"><g transform="" style="fill: rgb(0, 0, 0);">
<polygon points="0,50 50,100 100,50 50,0"/>
</g></g><g transform="translate(161,91) scale(0.07,0.07)"><g transform="" style="fill: rgb(0, 0, 0);">
<polygon points="0,50 50,100 100,50 50,0"/>
</g></g><g transform="translate(0,98) scale(0.07,0.07)"><g transform="" style="fill: rgb(0, 0, 0);">
<polygon points="0,50 50,100 100,50 50,0"/>
</g></g><g transform="translate(21,98) scale(0.07,0.07)"><g transform="" style="fill: rgb(0, 0, 0);">
<polygon points="0,50 50,100 100,50 50,0"/>
</g></g><g transform="translate(28,98) scale(0.07,0.07)"><g transform="" style="fill: rgb(0, 0, 0);">
<polygon points="0,50 50,100 100,50 50,0"/>
</g></g><g transform="translate(42,98) scale(0.07,0.07)"><g transform="" style="fill: rgb(0, 0, 0);">
<polygon points="0,50 50,100 100,50 50,0"/>
</g></g><g transform="translate(49,98) scale(0.07,0.07)"><g transform="" style="fill: rgb(0, 0, 0);">
<polygon points="0,50 50,100 100,50 50,0"/>
</g></g><g transform="translate(63,98) scale(0.07,0.07)"><g transform="" style="fill: rgb(0, 0, 0);">
<polygon points="0,50 50,100 100,50 50,0"/>
</g></g><g transform="translate(70,98) scale(0.07,0.07)"><g transform="" style="fill: rgb(0, 0, 0);">
<polygon points="0,50 50,100 100,50 50,0"/>
</g></g><g transform="translate(84,98) scale(0.07,0.07)"><g transform="" style="fill: rgb(0, 0, 0);">
<polygon points="0,50 50,100 100,50 50,0"/>
</g></g><g transform="translate(98,98) scale(0.07,0.07)"><g transform="" style="fill: rgb(0, 0, 0);">
<polygon points="0,50 50,100 100,50 50,0"/>
</g></g><g transform="translate(112,98) scale(0.07,0.07)"><g transform="" style="fill: rgb(0, 0, 0);">
<polygon points="0,50 50,100 100,50 50,0"/>
</g></g><g transform="translate(147,98) scale(0.07,0.07)"><g transform="" style="fill: rgb(0, 0, 0);">
<polygon points="0,50 50,100 100,50 50,0"/>
</g></g><g transform="translate(175,98) scale(0.07,0.07)"><g transform="" style="fill: rgb(0, 0, 0);">
<polygon points="0,50 50,100 100,50 50,0"/>
</g></g><g transform="translate(182,98) scale(0.07,0.07)"><g transform="" style="fill: rgb(0, 0, 0);">
<polygon points="0,50 50,100 100,50 50,0"/>
</g></g><g transform="translate(189,98) scale(0.07,0.07)"><g transform="" style="fill: rgb(0, 0, 0);">
<polygon points="0,50 50,100 100,50 50,0"/>
</g></g><g transform="translate(196,98) scale(0.07,0.07)"><g transform="" style="fill: rgb(0, 0, 0);">
<polygon points="0,50 50,100 100,50 50,0"/>
</g></g><g transform="translate(7,105) scale(0.07,0.07)"><g transform="" style="fill: rgb(0, 0, 0);">
<polygon points="0,50 50,100 100,50 50,0"/>
</g></g><g transform="translate(14,105) scale(0.07,0.07)"><g transform="" style="fill: rgb(0, 0, 0);">
<polygon points="0,50 50,100 100,50 50,0"/>
</g></g><g transform="translate(49,105) scale(0.07,0.07)"><g transform="" style="fill: rgb(0, 0, 0);">
<polygon points="0,50 50,100 100,50 50,0"/>
</g></g><g transform="translate(56,105) scale(0.07,0.07)"><g transform="" style="fill: rgb(0, 0, 0);">
<polygon points="0,50 50,100 100,50 50,0"/>
</g></g><g transform="translate(77,105) scale(0.07,0.07)"><g transform="" style="fill: rgb(0, 0, 0);">
<polygon points="0,50 50,100 100,50 50,0"/>
</g></g><g transform="translate(84,105) scale(0.07,0.07)"><g transform="" style="fill: rgb(0, 0, 0);">
<polygon points="0,50 50,100 100,50 50,0"/>
</g></g><g transform="translate(91,105) scale(0.07,0.07)"><g transform="" style="fill: rgb(0, 0, 0);">
<polygon points="0,50 50,100 100,50 50,0"/>
</g></g><g transform="translate(105,105) scale(0.07,0.07)"><g transform="" style="fill: rgb(0, 0, 0);">
<polygon points="0,50 50,100 100,50 50,0"/>
</g></g><g transform="translate(112,105) scale(0.07,0.07)"><g transform="" style="fill: rgb(0, 0, 0);">
<polygon points="0,50 50,100 100,50 50,0"/>
</g></g><g transform="translate(119,105) scale(0.07,0.07)"><g transform="" style="fill: rgb(0, 0, 0);">
<polygon points="0,50 50,100 100,50 50,0"/>
</g></g><g transform="translate(126,105) scale(0.07,0.07)"><g transform="" style="fill: rgb(0, 0, 0);">
<polygon points="0,50 50,100 100,50 50,0"/>
</g></g><g transform="translate(147,105) scale(0.07,0.07)"><g transform="" style="fill: rgb(0, 0, 0);">
<polygon points="0,50 50,100 100,50 50,0"/>
</g></g><g transform="translate(154,105) scale(0.07,0.07)"><g transform="" style="fill: rgb(0, 0, 0);">
<polygon points="0,50 50,100 100,50 50,0"/>
</g></g><g transform="translate(175,105) scale(0.07,0.07)"><g transform="" style="fill: rgb(0, 0, 0);">
<polygon points="0,50 50,100 100,50 50,0"/>
</g></g><g transform="translate(189,105) scale(0.07,0.07)"><g transform="" style="fill: rgb(0, 0, 0);">
<polygon points="0,50 50,100 100,50 50,0"/>
</g></g><g transform="translate(7,112) scale(0.07,0.07)"><g transform="" style="fill: rgb(0, 0, 0);">
<polygon points="0,50 50,100 100,50 50,0"/>
</g></g><g transform="translate(21,112) scale(0.07,0.07)"><g transform="" style="fill: rgb(0, 0, 0);">
<polygon points="0,50 50,100 100,50 50,0"/>
</g></g><g transform="translate(42,112) scale(0.07,0.07)"><g transform="" style="fill: rgb(0, 0, 0);">
<polygon points="0,50 50,100 100,50 50,0"/>
</g></g><g transform="translate(49,112) scale(0.07,0.07)"><g transform="" style="fill: rgb(0, 0, 0);">
<polygon points="0,50 50,100 100,50 50,0"/>
</g></g><g transform="translate(70,112) scale(0.07,0.07)"><g transform="" style="fill: rgb(0, 0, 0);">
<polygon points="0,50 50,100 100,50 50,0"/>
</g></g><g transform="translate(77,112) scale(0.07,0.07)"><g transform="" style="fill: rgb(0, 0, 0);">
<polygon points="0,50 50,100 100,50 50,0"/>
</g></g><g transform="translate(98,112) scale(0.07,0.07)"><g transform="" style="fill: rgb(0, 0, 0);">
<polygon points="0,50 50,100 100,50 50,0"/>
</g></g><g transform="translate(119,112) scale(0.07,0.07)"><g transform="" style="fill: rgb(0, 0, 0);">
<polygon points="0,50 50,100 100,50 50,0"/>
</g></g><g transform="translate(133,112) scale(0.07,0.07)"><g transform="" style="fill: rgb(0, 0, 0);">
<polygon points="0,50 50,100 100,50 50,0"/>
</g></g><g transform="translate(147,112) scale(0.07,0.07)"><g transform="" style="fill: rgb(0, 0, 0);">
<polygon points="0,50 50,100 100,50 50,0"/>
</g></g><g transform="translate(161,112) scale(0.07,0.07)"><g transform="" style="fill: rgb(0, 0, 0);">
<polygon points="0,50 50,100 100,50 50,0"/>
</g></g><g transform="translate(189,112) scale(0.07,0.07)"><g transform="" style="fill: rgb(0, 0, 0);">
<polygon points="0,50 50,100 100,50 50,0"/>
</g></g><g transform="translate(14,119) scale(0.07,0.07)"><g transform="" style="fill: rgb(0, 0, 0);">
<polygon points="0,50 50,100 100,50 50,0"/>
</g></g><g transform="translate(21,119) scale(0.07,0.07)"><g transform="" style="fill: rgb(0, 0, 0);">
<polygon points="0,50 50,100 100,50 50,0"/>
</g></g><g transform="translate(28,119) scale(0.07,0.07)"><g transform="" style="fill: rgb(0, 0, 0);">
<polygon points="0,50 50,100 100,50 50,0"/>
</g></g><g transform="translate(63,119) scale(0.07,0.07)"><g transform="" style="fill: rgb(0, 0, 0);">
<polygon points="0,50 50,100 100,50 50,0"/>
</g></g><g transform="translate(70,119) scale(0.07,0.07)"><g transform="" style="fill: rgb(0, 0, 0);">
<polygon points="0,50 50,100 100,50 50,0"/>
</g></g><g transform="translate(98,119) scale(0.07,0.07)"><g transform="" style="fill: rgb(0, 0, 0);">
<polygon points="0,50 50,100 100,50 50,0"/>
</g></g><g transform="translate(112,119) scale(0.07,0.07)"><g transform="" style="fill: rgb(0, 0, 0);">
<polygon points="0,50 50,100 100,50 50,0"/>
</g></g><g transform="translate(154,119) scale(0.07,0.07)"><g transform="" style="fill: rgb(0, 0, 0);">
<polygon points="0,50 50,100 100,50 50,0"/>
</g></g><g transform="translate(161,119) scale(0.07,0.07)"><g transform="" style="fill: rgb(0, 0, 0);">
<polygon points="0,50 50,100 100,50 50,0"/>
</g></g><g transform="translate(175,119) scale(0.07,0.07)"><g transform="" style="fill: rgb(0, 0, 0);">
<polygon points="0,50 50,100 100,50 50,0"/>
</g></g><g transform="translate(196,119) scale(0.07,0.07)"><g transform="" style="fill: rgb(0, 0, 0);">
<polygon points="0,50 50,100 100,50 50,0"/>
</g></g><g transform="translate(0,126) scale(0.07,0.07)"><g transform="" style="fill: rgb(0, 0, 0);">
<polygon points="0,50 50,100 100,50 50,0"/>
</g></g><g transform="translate(35,126) scale(0.07,0.07)"><g transform="" style="fill: rgb(0, 0, 0);">
<polygon points="0,50 50,100 100,50 50,0"/>
</g></g><g transform="translate(42,126) scale(0.07,0.07)"><g transform="" style="fill: rgb(0, 0, 0);">
<polygon points="0,50 50,100 100,50 50,0"/>
</g></g><g transform="translate(49,126) scale(0.07,0.07)"><g transform="" style="fill: rgb(0, 0, 0);">
<polygon points="0,50 50,100 100,50 50,0"/>
</g></g><g transform="translate(56,126) scale(0.07,0.07)"><g transform="" style="fill: rgb(0, 0, 0);">
<polygon points="0,50 50,100 100,50 50,0"/>
</g></g><g transform="translate(70,126) scale(0.07,0.07)"><g transform="" style="fill: rgb(0, 0, 0);">
<polygon points="0,50 50,100 100,50 50,0"/>
</g></g><g transform="translate(77,126) scale(0.07,0.07)"><g transform="" style="fill: rgb(0, 0, 0);">
<polygon points="0,50 50,100 100,50 50,0"/>
</g></g><g transform="translate(84,126) scale(0.07,0.07)"><g transform="" style="fill: rgb(0, 0, 0);">
<polygon points="0,50 50,100 100,50 50,0"/>
</g></g><g transform="translate(91,126) scale(0.07,0.07)"><g transform="" style="fill: rgb(0, 0, 0);">
<polygon points="0,50 50,100 100,50 50,0"/>
</g></g><g transform="translate(126,126) scale(0.07,0.07)"><g transform="" style="fill: rgb(0, 0, 0);">
<polygon points="0,50 50,100 100,50 50,0"/>
</g></g><g transform="translate(154,126) scale(0.07,0.07)"><g transform="" style="fill: rgb(0, 0, 0);">
<polygon points="0,50 50,100 100,50 50,0"/>
</g></g><g transform="translate(161,126) scale(0.07,0.07)"><g transform="" style="fill: rgb(0, 0, 0);">
<polygon points="0,50 50,100 100,50 50,0"/>
</g></g><g transform="translate(189,126) scale(0.07,0.07)"><g transform="" style="fill: rgb(0, 0, 0);">
<polygon points="0,50 50,100 100,50 50,0"/>
</g></g><g transform="translate(196,126) scale(0.07,0.07)"><g transform="" style="fill: rgb(0, 0, 0);">
<polygon points="0,50 50,100 100,50 50,0"/>
</g></g><g transform="translate(14,133) scale(0.07,0.07)"><g transform="" style="fill: rgb(0, 0, 0);">
<polygon points="0,50 50,100 100,50 50,0"/>
</g></g><g transform="translate(21,133) scale(0.07,0.07)"><g transform="" style="fill: rgb(0, 0, 0);">
<polygon points="0,50 50,100 100,50 50,0"/>
</g></g><g transform="translate(28,133) scale(0.07,0.07)"><g transform="" style="fill: rgb(0, 0, 0);">
<polygon points="0,50 50,100 100,50 50,0"/>
</g></g><g transform="translate(35,133) scale(0.07,0.07)"><g transform="" style="fill: rgb(0, 0, 0);">
<polygon points="0,50 50,100 100,50 50,0"/>
</g></g><g transform="translate(49,133) scale(0.07,0.07)"><g transform="" style="fill: rgb(0, 0, 0);">
<polygon points="0,50 50,100 100,50 50,0"/>
</g></g><g transform="translate(56,133) scale(0.07,0.07)"><g transform="" style="fill: rgb(0, 0, 0);">
<polygon points="0,50 50,100 100,50 50,0"/>
</g></g><g transform="translate(63,133) scale(0.07,0.07)"><g transform="" style="fill: rgb(0, 0, 0);">
<polygon points="0,50 50,100 100,50 50,0"/>
</g></g><g transform="translate(77,133) scale(0.07,0.07)"><g transform="" style="fill: rgb(0, 0, 0);">
<polygon points="0,50 50,100 100,50 50,0"/>
</g></g><g transform="translate(84,133) scale(0.07,0.07)"><g transform="" style="fill: rgb(0, 0, 0);">
<polygon points="0,50 50,100 100,50 50,0"/>
</g></g><g transform="translate(98,133) scale(0.07,0.07)"><g transform="" style="fill: rgb(0, 0, 0);">
<polygon points="0,50 50,100 100,50 50,0"/>
</g></g><g transform="translate(105,133) scale(0.07,0.07)"><g transform="" style="fill: rgb(0, 0, 0);">
<polygon points="0,50 50,100 100,50 50,0"/>
</g></g><g transform="translate(112,133) scale(0.07,0.07)"><g transform="" style="fill: rgb(0, 0, 0);">
<polygon points="0,50 50,100 100,50 50,0"/>
</g></g><g transform="translate(119,133) scale(0.07,0.07)"><g transform="" style="fill: rgb(0, 0, 0);">
<polygon points="0,50 50,100 100,50 50,0"/>
</g></g><g transform="translate(126,133) scale(0.07,0.07)"><g transform="" style="fill: rgb(0, 0, 0);">
<polygon points="0,50 50,100 100,50 50,0"/>
</g></g><g transform="translate(133,133) scale(0.07,0.07)"><g transform="" style="fill: rgb(0, 0, 0);">
<polygon points="0,50 50,100 100,50 50,0"/>
</g></g><g transform="translate(140,133) scale(0.07,0.07)"><g transform="" style="fill: rgb(0, 0, 0);">
<polygon points="0,50 50,100 100,50 50,0"/>
</g></g><g transform="translate(189,133) scale(0.07,0.07)"><g transform="" style="fill: rgb(0, 0, 0);">
<polygon points="0,50 50,100 100,50 50,0"/>
</g></g><g transform="translate(196,133) scale(0.07,0.07)"><g transform="" style="fill: rgb(0, 0, 0);">
<polygon points="0,50 50,100 100,50 50,0"/>
</g></g><g transform="translate(0,140) scale(0.07,0.07)"><g transform="" style="fill: rgb(0, 0, 0);">
<polygon points="0,50 50,100 100,50 50,0"/>
</g></g><g transform="translate(14,140) scale(0.07,0.07)"><g transform="" style="fill: rgb(0, 0, 0);">
<polygon points="0,50 50,100 100,50 50,0"/>
</g></g><g transform="translate(21,140) scale(0.07,0.07)"><g transform="" style="fill: rgb(0, 0, 0);">
<polygon points="0,50 50,100 100,50 50,0"/>
</g></g><g transform="translate(28,140) scale(0.07,0.07)"><g transform="" style="fill: rgb(0, 0, 0);">
<polygon points="0,50 50,100 100,50 50,0"/>
</g></g><g transform="translate(35,140) scale(0.07,0.07)"><g transform="" style="fill: rgb(0, 0, 0);">
<polygon points="0,50 50,100 100,50 50,0"/>
</g></g><g transform="translate(42,140) scale(0.07,0.07)"><g transform="" style="fill: rgb(0, 0, 0);">
<polygon points="0,50 50,100 100,50 50,0"/>
</g></g><g transform="translate(63,140) scale(0.07,0.07)"><g transform="" style="fill: rgb(0, 0, 0);">
<polygon points="0,50 50,100 100,50 50,0"/>
</g></g><g transform="translate(84,140) scale(0.07,0.07)"><g transform="" style="fill: rgb(0, 0, 0);">
<polygon points="0,50 50,100 100,50 50,0"/>
</g></g><g transform="translate(112,140) scale(0.07,0.07)"><g transform="" style="fill: rgb(0, 0, 0);">
<polygon points="0,50 50,100 100,50 50,0"/>
</g></g><g transform="translate(140,140) scale(0.07,0.07)"><g transform="" style="fill: rgb(0, 0, 0);">
<polygon points="0,50 50,100 100,50 50,0"/>
</g></g><g transform="translate(147,140) scale(0.07,0.07)"><g transform="" style="fill: rgb(0, 0, 0);">
<polygon points="0,50 50,100 100,50 50,0"/>
</g></g><g transform="translate(154,140) scale(0.07,0.07)"><g transform="" style="fill: rgb(0, 0, 0);">
<polygon points="0,50 50,100 100,50 50,0"/>
</g></g><g transform="translate(161,140) scale(0.07,0.07)"><g transform="" style="fill: rgb(0, 0, 0);">
<polygon points="0,50 50,100 100,50 50,0"/>
</g></g><g transform="translate(168,140) scale(0.07,0.07)"><g transform="" style="fill: rgb(0, 0, 0);">
<polygon points="0,50 50,100 100,50 50,0"/>
</g></g><g transform="translate(182,140) scale(0.07,0.07)"><g transform="" style="fill: rgb(0, 0, 0);">
<polygon points="0,50 50,100 100,50 50,0"/>
</g></g><g transform="translate(56,147) scale(0.07,0.07)"><g transform="" style="fill: rgb(0, 0, 0);">
<polygon points="0,50 50,100 100,50 50,0"/>
</g></g><g transform="translate(70,147) scale(0.07,0.07)"><g transform="" style="fill: rgb(0, 0, 0);">
<polygon points="0,50 50,100 100,50 50,0"/>
</g></g><g transform="translate(84,147) scale(0.07,0.07)"><g transform="" style="fill: rgb(0, 0, 0);">
<polygon points="0,50 50,100 100,50 50,0"/>
</g></g><g transform="translate(112,147) scale(0.07,0.07)"><g transform="" style="fill: rgb(0, 0, 0);">
<polygon points="0,50 50,100 100,50 50,0"/>
</g></g><g transform="translate(133,147) scale(0.07,0.07)"><g transform="" style="fill: rgb(0, 0, 0);">
<polygon points="0,50 50,100 100,50 50,0"/>
</g></g><g transform="translate(140,147) scale(0.07,0.07)"><g transform="" style="fill: rgb(0, 0, 0);">
<polygon points="0,50 50,100 100,50 50,0"/>
</g></g><g transform="translate(168,147) scale(0.07,0.07)"><g transform="" style="fill: rgb(0, 0, 0);">
<polygon points="0,50 50,100 100,50 50,0"/>
</g></g><g transform="translate(182,147) scale(0.07,0.07)"><g transform="" style="fill: rgb(0, 0, 0);">
<polygon points="0,50 50,100 100,50 50,0"/>
</g></g><g transform="translate(189,147) scale(0.07,0.07)"><g transform="" style="fill: rgb(0, 0, 0);">
<polygon points="0,50 50,100 100,50 50,0"/>
</g></g><g transform="translate(196,147) scale(0.07,0.07)"><g transform="" style="fill: rgb(0, 0, 0);">
<polygon points="0,50 50,100 100,50 50,0"/>
</g></g><g transform="translate(84,154) scale(0.07,0.07)"><g transform="" style="fill: rgb(0, 0, 0);">
<polygon points="0,50 50,100 100,50 50,0"/>
</g></g><g transform="translate(140,154) scale(0.07,0.07)"><g transform="" style="fill: rgb(0, 0, 0);">
<polygon points="0,50 50,100 100,50 50,0"/>
</g></g><g transform="translate(154,154) scale(0.07,0.07)"><g transform="" style="fill: rgb(0, 0, 0);">
<polygon points="0,50 50,100 100,50 50,0"/>
</g></g><g transform="translate(168,154) scale(0.07,0.07)"><g transform="" style="fill: rgb(0, 0, 0);">
<polygon points="0,50 50,100 100,50 50,0"/>
</g></g><g transform="translate(189,154) scale(0.07,0.07)"><g transform="" style="fill: rgb(0, 0, 0);">
<polygon points="0,50 50,100 100,50 50,0"/>
</g></g><g transform="translate(56,161) scale(0.07,0.07)"><g transform="" style="fill: rgb(0, 0, 0);">
<polygon points="0,50 50,100 100,50 50,0"/>
</g></g><g transform="translate(70,161) scale(0.07,0.07)"><g transform="" style="fill: rgb(0, 0, 0);">
<polygon points="0,50 50,100 100,50 50,0"/>
</g></g><g transform="translate(84,161) scale(0.07,0.07)"><g transform="" style="fill: rgb(0, 0, 0);">
<polygon points="0,50 50,100 100,50 50,0"/>
</g></g><g transform="translate(98,161) scale(0.07,0.07)"><g transform="" style="fill: rgb(0, 0, 0);">
<polygon points="0,50 50,100 100,50 50,0"/>
</g></g><g transform="translate(140,161) scale(0.07,0.07)"><g transform="" style="fill: rgb(0, 0, 0);">
<polygon points="0,50 50,100 100,50 50,0"/>
</g></g><g transform="translate(168,161) scale(0.07,0.07)"><g transform="" style="fill: rgb(0, 0, 0);">
<polygon points="0,50 50,100 100,50 50,0"/>
</g></g><g transform="translate(175,161) scale(0.07,0.07)"><g transform="" style="fill: rgb(0, 0, 0);">
<polygon points="0,50 50,100 100,50 50,0"/>
</g></g><g transform="translate(182,161) scale(0.07,0.07)"><g transform="" style="fill: rgb(0, 0, 0);">
<polygon points="0,50 50,100 100,50 50,0"/>
</g></g><g transform="translate(63,168) scale(0.07,0.07)"><g transform="" style="fill: rgb(0, 0, 0);">
<polygon points="0,50 50,100 100,50 50,0"/>
</g></g><g transform="translate(119,168) scale(0.07,0.07)"><g transform="" style="fill: rgb(0, 0, 0);">
<polygon points="0,50 50,100 100,50 50,0"/>
</g></g><g transform="translate(140,168) scale(0.07,0.07)"><g transform="" style="fill: rgb(0, 0, 0);">
<polygon points="0,50 50,100 100,50 50,0"/>
</g></g><g transform="translate(147,168) scale(0.07,0.07)"><g transform="" style="fill: rgb(0, 0, 0);">
<polygon points="0,50 50,100 100,50 50,0"/>
</g></g><g transform="translate(154,168) scale(0.07,0.07)"><g transform="" style="fill: rgb(0, 0, 0);">
<polygon points="0,50 50,100 100,50 50,0"/>
</g></g><g transform="translate(161,168) scale(0.07,0.07)"><g transform="" style="fill: rgb(0, 0, 0);">
<polygon points="0,50 50,100 100,50 50,0"/>
</g></g><g transform="translate(168,168) scale(0.07,0.07)"><g transform="" style="fill: rgb(0, 0, 0);">
<polygon points="0,50 50,100 100,50 50,0"/>
</g></g><g transform="translate(56,175) scale(0.07,0.07)"><g transform="" style="fill: rgb(0, 0, 0);">
<polygon points="0,50 50,100 100,50 50,0"/>
</g></g><g transform="translate(70,175) scale(0.07,0.07)"><g transform="" style="fill: rgb(0, 0, 0);">
<polygon points="0,50 50,100 100,50 50,0"/>
</g></g><g transform="translate(77,175) scale(0.07,0.07)"><g transform="" style="fill: rgb(0, 0, 0);">
<polygon points="0,50 50,100 100,50 50,0"/>
</g></g><g transform="translate(84,175) scale(0.07,0.07)"><g transform="" style="fill: rgb(0, 0, 0);">
<polygon points="0,50 50,100 100,50 50,0"/>
</g></g><g transform="translate(91,175) scale(0.07,0.07)"><g transform="" style="fill: rgb(0, 0, 0);">
<polygon points="0,50 50,100 100,50 50,0"/>
</g></g><g transform="translate(133,175) scale(0.07,0.07)"><g transform="" style="fill: rgb(0, 0, 0);">
<polygon points="0,50 50,100 100,50 50,0"/>
</g></g><g transform="translate(154,175) scale(0.07,0.07)"><g transform="" style="fill: rgb(0, 0, 0);">
<polygon points="0,50 50,100 100,50 50,0"/>
</g></g><g transform="translate(168,175) scale(0.07,0.07)"><g transform="" style="fill: rgb(0, 0, 0);">
<polygon points="0,50 50,100 100,50 50,0"/>
</g></g><g transform="translate(175,175) scale(0.07,0.07)"><g transform="" style="fill: rgb(0, 0, 0);">
<polygon points="0,50 50,100 100,50 50,0"/>
</g></g><g transform="translate(182,175) scale(0.07,0.07)"><g transform="" style="fill: rgb(0, 0, 0);">
<polygon points="0,50 50,100 100,50 50,0"/>
</g></g><g transform="translate(189,175) scale(0.07,0.07)"><g transform="" style="fill: rgb(0, 0, 0);">
<polygon points="0,50 50,100 100,50 50,0"/>
</g></g><g transform="translate(77,182) scale(0.07,0.07)"><g transform="" style="fill: rgb(0, 0, 0);">
<polygon points="0,50 50,100 100,50 50,0"/>
</g></g><g transform="translate(84,182) scale(0.07,0.07)"><g transform="" style="fill: rgb(0, 0, 0);">
<polygon points="0,50 50,100 100,50 50,0"/>
</g></g><g transform="translate(91,182) scale(0.07,0.07)"><g transform="" style="fill: rgb(0, 0, 0);">
<polygon points="0,50 50,100 100,50 50,0"/>
</g></g><g transform="translate(119,182) scale(0.07,0.07)"><g transform="" style="fill: rgb(0, 0, 0);">
<polygon points="0,50 50,100 100,50 50,0"/>
</g></g><g transform="translate(126,182) scale(0.07,0.07)"><g transform="" style="fill: rgb(0, 0, 0);">
<polygon points="0,50 50,100 100,50 50,0"/>
</g></g><g transform="translate(147,182) scale(0.07,0.07)"><g transform="" style="fill: rgb(0, 0, 0);">
<polygon points="0,50 50,100 100,50 50,0"/>
</g></g><g transform="translate(168,182) scale(0.07,0.07)"><g transform="" style="fill: rgb(0, 0, 0);">
<polygon points="0,50 50,100 100,50 50,0"/>
</g></g><g transform="translate(175,182) scale(0.07,0.07)"><g transform="" style="fill: rgb(0, 0, 0);">
<polygon points="0,50 50,100 100,50 50,0"/>
</g></g><g transform="translate(182,182) scale(0.07,0.07)"><g transform="" style="fill: rgb(0, 0, 0);">
<polygon points="0,50 50,100 100,50 50,0"/>
</g></g><g transform="translate(196,182) scale(0.07,0.07)"><g transform="" style="fill: rgb(0, 0, 0);">
<polygon points="0,50 50,100 100,50 50,0"/>
</g></g><g transform="translate(70,189) scale(0.07,0.07)"><g transform="" style="fill: rgb(0, 0, 0);">
<polygon points="0,50 50,100 100,50 50,0"/>
</g></g><g transform="translate(105,189) scale(0.07,0.07)"><g transform="" style="fill: rgb(0, 0, 0);">
<polygon points="0,50 50,100 100,50 50,0"/>
</g></g><g transform="translate(119,189) scale(0.07,0.07)"><g transform="" style="fill: rgb(0, 0, 0);">
<polygon points="0,50 50,100 100,50 50,0"/>
</g></g><g transform="translate(126,189) scale(0.07,0.07)"><g transform="" style="fill: rgb(0, 0, 0);">
<polygon points="0,50 50,100 100,50 50,0"/>
</g></g><g transform="translate(133,189) scale(0.07,0.07)"><g transform="" style="fill: rgb(0, 0, 0);">
<polygon points="0,50 50,100 100,50 50,0"/>
</g></g><g transform="translate(140,189) scale(0.07,0.07)"><g transform="" style="fill: rgb(0, 0, 0);">
<polygon points="0,50 50,100 100,50 50,0"/>
</g></g><g transform="translate(168,189) scale(0.07,0.07)"><g transform="" style="fill: rgb(0, 0, 0);">
<polygon points="0,50 50,100 100,50 50,0"/>
</g></g><g transform="translate(189,189) scale(0.07,0.07)"><g transform="" style="fill: rgb(0, 0, 0);">
<polygon points="0,50 50,100 100,50 50,0"/>
</g></g><g transform="translate(56,196) scale(0.07,0.07)"><g transform="" style="fill: rgb(0, 0, 0);">
<polygon points="0,50 50,100 100,50 50,0"/>
</g></g><g transform="translate(63,196) scale(0.07,0.07)"><g transform="" style="fill: rgb(0, 0, 0);">
<polygon points="0,50 50,100 100,50 50,0"/>
</g></g><g transform="translate(70,196) scale(0.07,0.07)"><g transform="" style="fill: rgb(0, 0, 0);">
<polygon points="0,50 50,100 100,50 50,0"/>
</g></g><g transform="translate(84,196) scale(0.07,0.07)"><g transform="" style="fill: rgb(0, 0, 0);">
<polygon points="0,50 50,100 100,50 50,0"/>
</g></g><g transform="translate(91,196) scale(0.07,0.07)"><g transform="" style="fill: rgb(0, 0, 0);">
<polygon points="0,50 50,100 100,50 50,0"/>
</g></g><g transform="translate(105,196) scale(0.07,0.07)"><g transform="" style="fill: rgb(0, 0, 0);">
<polygon points="0,50 50,100 100,50 50,0"/>
</g></g><g transform="translate(119,196) scale(0.07,0.07)"><g transform="" style="fill: rgb(0, 0, 0);">
<polygon points="0,50 50,100 100,50 50,0"/>
</g></g><g transform="translate(140,196) scale(0.07,0.07)"><g transform="" style="fill: rgb(0, 0, 0);">
<polygon points="0,50 50,100 100,50 50,0"/>
</g></g><g transform="translate(161,196) scale(0.07,0.07)"><g transform="" style="fill: rgb(0, 0, 0);">
<polygon points="0,50 50,100 100,50 50,0"/>
</g></g><g transform="translate(168,196) scale(0.07,0.07)"><g transform="" style="fill: rgb(0, 0, 0);">
<polygon points="0,50 50,100 100,50 50,0"/>
</g></g><g transform="translate(189,196) scale(0.07,0.07)"><g transform="" style="fill: rgb(0, 0, 0);">
<polygon points="0,50 50,100 100,50 50,0"/>
</g></g><g transform="translate(0,0) scale(0.48039215686275, 0.48039215686275)"><g transform="" style="fill: rgb(0, 0, 0);">
<g>
	<path style="fill:none;" d="M51,16c-19.299,0-35,15.701-35,35s15.701,35,35,35s35-15.701,35-35S70.299,16,51,16z"/>
	<path d="M51,1C23.387,1,1,23.387,1,51s22.387,50,50,50s50-22.387,50-50S78.613,1,51,1z M51,86c-19.299,0-35-15.701-35-35
		s15.701-35,35-35s35,15.701,35,35S70.299,86,51,86z"/>
</g>
</g></g><g transform="translate(154,0) scale(0.48039215686275, 0.48039215686275)"><g transform="" style="fill: rgb(0, 0, 0);">
<g>
	<path style="fill:none;" d="M51,16c-19.299,0-35,15.701-35,35s15.701,35,35,35s35-15.701,35-35S70.299,16,51,16z"/>
	<path d="M51,1C23.387,1,1,23.387,1,51s22.387,50,50,50s50-22.387,50-50S78.613,1,51,1z M51,86c-19.299,0-35-15.701-35-35
		s15.701-35,35-35s35,15.701,35,35S70.299,86,51,86z"/>
</g>
</g></g><g transform="translate(0,154) scale(0.48039215686275, 0.48039215686275)"><g transform="" style="fill: rgb(0, 0, 0);">
<g>
	<path style="fill:none;" d="M51,16c-19.299,0-35,15.701-35,35s15.701,35,35,35s35-15.701,35-35S70.299,16,51,16z"/>
	<path d="M51,1C23.387,1,1,23.387,1,51s22.387,50,50,50s50-22.387,50-50S78.613,1,51,1z M51,86c-19.299,0-35-15.701-35-35
		s15.701-35,35-35s35,15.701,35,35S70.299,86,51,86z"/>
</g>
</g></g><g transform="translate(14,14) scale(0.20588235294118, 0.20588235294118)"><g transform="" style="fill: rgb(0, 0, 0);">
<circle cx="50" cy="50" r="50"/>
</g></g><g transform="translate(168,14) scale(0.20588235294118, 0.20588235294118)"><g transform="" style="fill: rgb(0, 0, 0);">
<circle cx="50" cy="50" r="50"/>
</g></g><g transform="translate(14,168) scale(0.20588235294118, 0.20588235294118)"><g transform="" style="fill: rgb(0, 0, 0);">
<circle cx="50" cy="50" r="50"/>
</g></g></g></svg>